<mxfile host="app.diagrams.net" agent="Mozilla/5.0 (Windows NT 10.0; Win64; x64) AppleWebKit/537.36 (KHTML, like Gecko) Chrome/137.0.0.0 Safari/537.36 Edg/137.0.0.0" version="27.1.6">
  <diagram name="第 1 页" id="5P71Y7ZBeFehb5d9YXv9">
    <mxGraphModel dx="1426" dy="789" grid="0" gridSize="10" guides="1" tooltips="1" connect="1" arrows="1" fold="1" page="1" pageScale="1" pageWidth="827" pageHeight="1169" background="none" math="0" shadow="0">
      <root>
        <mxCell id="0" />
        <mxCell id="1" parent="0" />
        <mxCell id="z74y9rzTVkgYJ9HkgaIG-36" value="" style="group" parent="1" vertex="1" connectable="0">
          <mxGeometry x="144" y="189" width="539.5" height="305" as="geometry" />
        </mxCell>
        <mxCell id="z74y9rzTVkgYJ9HkgaIG-31" style="edgeStyle=orthogonalEdgeStyle;rounded=0;orthogonalLoop=1;jettySize=auto;html=1;exitX=0;exitY=0.5;exitDx=0;exitDy=0;entryX=0;entryY=0.5;entryDx=0;entryDy=0;shape=link;" parent="z74y9rzTVkgYJ9HkgaIG-36" source="z74y9rzTVkgYJ9HkgaIG-1" target="z74y9rzTVkgYJ9HkgaIG-15" edge="1">
          <mxGeometry relative="1" as="geometry" />
        </mxCell>
        <mxCell id="z74y9rzTVkgYJ9HkgaIG-1" value="&lt;font style=&quot;font-size: 14px;&quot;&gt;work1&lt;/font&gt;" style="rounded=0;whiteSpace=wrap;html=1;fillColor=#dae8fc;strokeColor=#6c8ebf;" parent="z74y9rzTVkgYJ9HkgaIG-36" vertex="1">
          <mxGeometry x="24" y="33" width="93" height="37" as="geometry" />
        </mxCell>
        <mxCell id="z74y9rzTVkgYJ9HkgaIG-15" value="&lt;font style=&quot;font-size: 14px;&quot;&gt;work4&lt;/font&gt;" style="rounded=0;whiteSpace=wrap;html=1;fillColor=#dae8fc;strokeColor=#6c8ebf;" parent="z74y9rzTVkgYJ9HkgaIG-36" vertex="1">
          <mxGeometry x="24" y="268" width="93" height="37" as="geometry" />
        </mxCell>
        <mxCell id="z74y9rzTVkgYJ9HkgaIG-16" value="&lt;font style=&quot;font-size: 14px;&quot;&gt;work3&lt;/font&gt;" style="rounded=0;whiteSpace=wrap;html=1;fillColor=#dae8fc;strokeColor=#6c8ebf;" parent="z74y9rzTVkgYJ9HkgaIG-36" vertex="1">
          <mxGeometry x="24" y="196" width="93" height="37" as="geometry" />
        </mxCell>
        <mxCell id="z74y9rzTVkgYJ9HkgaIG-17" value="&lt;font style=&quot;font-size: 14px;&quot;&gt;work2&lt;/font&gt;" style="rounded=0;whiteSpace=wrap;html=1;fillColor=#dae8fc;strokeColor=#6c8ebf;" parent="z74y9rzTVkgYJ9HkgaIG-36" vertex="1">
          <mxGeometry x="24" y="105" width="93" height="37" as="geometry" />
        </mxCell>
        <mxCell id="z74y9rzTVkgYJ9HkgaIG-18" value="&lt;b&gt;.&lt;/b&gt;&lt;div&gt;&lt;b&gt;.&lt;/b&gt;&lt;/div&gt;&lt;div&gt;&lt;b&gt;.&lt;/b&gt;&lt;/div&gt;&lt;div&gt;&lt;br&gt;&lt;/div&gt;" style="text;html=1;align=center;verticalAlign=middle;resizable=0;points=[];autosize=1;strokeColor=none;fillColor=none;" parent="z74y9rzTVkgYJ9HkgaIG-36" vertex="1">
          <mxGeometry x="60" y="138" width="21" height="70" as="geometry" />
        </mxCell>
        <mxCell id="z74y9rzTVkgYJ9HkgaIG-24" style="edgeStyle=orthogonalEdgeStyle;rounded=0;orthogonalLoop=1;jettySize=auto;html=1;exitX=0;exitY=0.5;exitDx=0;exitDy=0;entryX=1;entryY=0.5;entryDx=0;entryDy=0;" parent="z74y9rzTVkgYJ9HkgaIG-36" source="z74y9rzTVkgYJ9HkgaIG-19" target="z74y9rzTVkgYJ9HkgaIG-1" edge="1">
          <mxGeometry relative="1" as="geometry" />
        </mxCell>
        <mxCell id="z74y9rzTVkgYJ9HkgaIG-25" style="edgeStyle=orthogonalEdgeStyle;rounded=0;orthogonalLoop=1;jettySize=auto;html=1;exitX=0;exitY=0.5;exitDx=0;exitDy=0;entryX=1;entryY=0.5;entryDx=0;entryDy=0;" parent="z74y9rzTVkgYJ9HkgaIG-36" source="z74y9rzTVkgYJ9HkgaIG-19" target="z74y9rzTVkgYJ9HkgaIG-17" edge="1">
          <mxGeometry relative="1" as="geometry" />
        </mxCell>
        <mxCell id="z74y9rzTVkgYJ9HkgaIG-26" style="edgeStyle=orthogonalEdgeStyle;rounded=0;orthogonalLoop=1;jettySize=auto;html=1;exitX=0;exitY=0.5;exitDx=0;exitDy=0;entryX=1;entryY=0.5;entryDx=0;entryDy=0;" parent="z74y9rzTVkgYJ9HkgaIG-36" source="z74y9rzTVkgYJ9HkgaIG-19" target="z74y9rzTVkgYJ9HkgaIG-16" edge="1">
          <mxGeometry relative="1" as="geometry" />
        </mxCell>
        <mxCell id="z74y9rzTVkgYJ9HkgaIG-27" style="edgeStyle=orthogonalEdgeStyle;rounded=0;orthogonalLoop=1;jettySize=auto;html=1;exitX=0;exitY=0.5;exitDx=0;exitDy=0;entryX=1;entryY=0.5;entryDx=0;entryDy=0;" parent="z74y9rzTVkgYJ9HkgaIG-36" source="z74y9rzTVkgYJ9HkgaIG-19" target="z74y9rzTVkgYJ9HkgaIG-15" edge="1">
          <mxGeometry relative="1" as="geometry" />
        </mxCell>
        <mxCell id="z74y9rzTVkgYJ9HkgaIG-29" style="edgeStyle=orthogonalEdgeStyle;rounded=0;orthogonalLoop=1;jettySize=auto;html=1;exitX=0.5;exitY=1;exitDx=0;exitDy=0;entryX=0.5;entryY=1;entryDx=0;entryDy=0;startArrow=none;startFill=0;shape=link;" parent="z74y9rzTVkgYJ9HkgaIG-36" source="z74y9rzTVkgYJ9HkgaIG-19" target="z74y9rzTVkgYJ9HkgaIG-22" edge="1">
          <mxGeometry relative="1" as="geometry" />
        </mxCell>
        <mxCell id="z74y9rzTVkgYJ9HkgaIG-19" value="task1" style="rounded=0;whiteSpace=wrap;html=1;fillColor=#d5e8d4;strokeColor=#82b366;" parent="z74y9rzTVkgYJ9HkgaIG-36" vertex="1">
          <mxGeometry x="274" y="108" width="42" height="130" as="geometry" />
        </mxCell>
        <mxCell id="z74y9rzTVkgYJ9HkgaIG-20" value="task3" style="rounded=0;whiteSpace=wrap;html=1;fillColor=#d5e8d4;strokeColor=#82b366;" parent="z74y9rzTVkgYJ9HkgaIG-36" vertex="1">
          <mxGeometry x="396" y="108" width="42" height="130" as="geometry" />
        </mxCell>
        <mxCell id="z74y9rzTVkgYJ9HkgaIG-21" value="task2" style="rounded=0;whiteSpace=wrap;html=1;fillColor=#d5e8d4;strokeColor=#82b366;" parent="z74y9rzTVkgYJ9HkgaIG-36" vertex="1">
          <mxGeometry x="335" y="108" width="42" height="130" as="geometry" />
        </mxCell>
        <mxCell id="z74y9rzTVkgYJ9HkgaIG-22" value="task4" style="rounded=0;whiteSpace=wrap;html=1;fillColor=#d5e8d4;strokeColor=#82b366;" parent="z74y9rzTVkgYJ9HkgaIG-36" vertex="1">
          <mxGeometry x="457" y="108" width="42" height="130" as="geometry" />
        </mxCell>
        <mxCell id="z74y9rzTVkgYJ9HkgaIG-30" value="&lt;b&gt;workQueue：存放任务的阻塞队列&lt;/b&gt;" style="text;html=1;align=center;verticalAlign=middle;resizable=0;points=[];autosize=1;strokeColor=none;fillColor=none;" parent="z74y9rzTVkgYJ9HkgaIG-36" vertex="1">
          <mxGeometry x="283" y="279" width="203" height="26" as="geometry" />
        </mxCell>
        <mxCell id="z74y9rzTVkgYJ9HkgaIG-32" value="&lt;b&gt;workSet：线程集合，即线程池&lt;/b&gt;" style="text;html=1;align=center;verticalAlign=middle;resizable=0;points=[];autosize=1;strokeColor=none;fillColor=none;" parent="z74y9rzTVkgYJ9HkgaIG-36" vertex="1">
          <mxGeometry width="185" height="26" as="geometry" />
        </mxCell>
        <mxCell id="z74y9rzTVkgYJ9HkgaIG-34" value="&lt;b&gt;work：线程，不断执行任务，执行完后从阻塞队列&lt;/b&gt;&lt;b style=&quot;background-color: transparent; color: light-dark(rgb(0, 0, 0), rgb(255, 255, 255));&quot;&gt;获取&lt;/b&gt;&lt;div&gt;&lt;b style=&quot;background-color: transparent; color: light-dark(rgb(0, 0, 0), rgb(255, 255, 255));&quot;&gt;任务，&lt;/b&gt;&lt;b style=&quot;background-color: transparent; color: light-dark(rgb(0, 0, 0), rgb(255, 255, 255));&quot;&gt;如果阻塞队列为空，就阻塞直到阻塞队列有任务&lt;/b&gt;&lt;/div&gt;" style="text;html=1;align=center;verticalAlign=middle;resizable=0;points=[];autosize=1;strokeColor=none;fillColor=none;" parent="z74y9rzTVkgYJ9HkgaIG-36" vertex="1">
          <mxGeometry x="229.5" y="26" width="310" height="41" as="geometry" />
        </mxCell>
      </root>
    </mxGraphModel>
  </diagram>
</mxfile>
